# xmcd
#
# Track frame offsets:
#	150
#	13502
#	25867
#	40235
#	54240
#	67027
#	81820
#	92873
#	105018
#	116023
#	127991
#	141193
#	152523
#	166308
#	180553
#	194328
#	207113
#	220491
#	230533
#	242681
#	252961
#	263531
#	277496
#	290213
#	302878
#	315841
#
# Disc length: 4392 seconds
# Revision: 0
# Processed by: cddbd v1.5.2PL0 Copyright (c) Steve Scherf et al.
# Submitted via: dBpowerAMP V12.0
#
DISCID=6d11261a
DTITLE=B. B. KING - THE COMPLETE RPM - KENT RECORDING BOX, CD3
DYEAR=2015
DGENRE=Blues
TTITLE0=Neighborhood Affair
TTITLE1=Please Hurry Home
TTITLE2=Why Did You Leave Me
TTITLE3=Blind Love (Who Can Your Good Man Be)
TTITLE4=Praying To The Lord
TTITLE5=Please Help Me
TTITLE6=Love You Baby
TTITLE7=The Woman I Love
TTITLE8=Everything I Do Is Wrong
TTITLE9=Don't You Want A Man Like Me
TTITLE10=When My Heart Beats Like A Hammer
TTITLE11=Bye! Bye! Baby
TTITLE12=You Upset Me Baby
TTITLE13=Whole Lotta' Love
TTITLE14=Sneakin' Around
TTITLE15=Everyday I Have The Blues
TTITLE16=Lonely And Blue
TTITLE17=Jump With You Baby
TTITLE18=Shut Your Mouth
TTITLE19=I'm In Love
TTITLE20=Talkin' The Blues
TTITLE21=Boogie Rock
TTITLE22=What Can I Do (Just Sing The Blues)
TTITLE23=Ten Long Years (I Had A Woman)
TTITLE24=I'm Cracking Up Over You
TTITLE25=Ruby Lee
EXTD=
EXTT0=
EXTT1=
EXTT2=
EXTT3=
EXTT4=
EXTT5=
EXTT6=
EXTT7=
EXTT8=
EXTT9=
EXTT10=
EXTT11=
EXTT12=
EXTT13=
EXTT14=
EXTT15=
EXTT16=
EXTT17=
EXTT18=
EXTT19=
EXTT20=
EXTT21=
EXTT22=
EXTT23=
EXTT24=
EXTT25=
PLAYORDER=
